ply
format ascii 1.0
comment Created by Open Asset Import Library - http://assimp.sf.net (v3.1.187496374)
element vertex 330
property float x
property float y
property float z
element face 660
property list uint uint vertex_index
end_header
-0.30443 -0.0931164 0.175763
-0.269284 -0.0931164 0.225956
-0.269284 -0.137005 0.225956
-0.30443 -0.137005 0.175763
-1.10672 -0.0931164 0.638966
-0.330326 -0.0931164 0.120229
-0.225956 -0.0931164 0.269284
-0.225956 -0.137005 0.269284
-0.149237 -0.137005 0.0861619
-0.132008 -0.137005 0.110768
-0.175763 -0.137005 0.30443
-0.110768 -0.137005 0.132008
-0.175763 -0.0931164 0.30443
-0.0861619 -0.137005 0.149237
-0.120229 -0.137005 0.330326
-0.110768 -0.0931164 0.132008
-0.0861619 -0.0931164 0.149237
-0.132008 -0.0931164 0.110768
-0.0861619 0.0931164 0.149237
-0.110768 0.0931164 0.132008
-0.0589382 -0.0931164 0.161931
-0.0589382 0.0931164 0.161931
-0.0589382 0.137005 0.161931
-0.0861619 0.137005 0.149237
-0.132008 0.0931164 0.110768
-0.110768 0.137005 0.132008
-0.175763 0.137005 0.30443
-0.120229 0.137005 0.330326
-0.0299238 0.137005 0.169706
-0.0610418 0.137005 0.346185
-0.0610418 0.0931164 0.346185
-0.120229 0.0931164 0.330326
-0.175763 0.0931164 0.30443
-0.225956 0.137005 0.269284
-0.225956 0.0931164 0.269284
-1.10672 0.0931164 0.638966
-0.132008 0.137005 0.110768
-0.269284 0.137005 0.225956
-0.269284 0.0931164 0.225956
-0.30443 0.137005 0.175763
-0.149237 0.137005 0.0861619
-0.149237 0.0931164 0.0861619
-0.161931 0.0931164 0.0589382
-0.161931 0.137005 0.0589382
-0.161931 -0.0931164 0.0589382
-0.149237 -0.0931164 0.0861619
-0.161931 -0.137005 0.0589382
-0.169706 -0.0931164 0.0299238
-0.169706 -0.137005 0.0299238
-0.330326 -0.137005 0.120229
-0.172324 -0.137005 8.0139e-08
-0.346185 -0.137005 0.0610417
-0.172324 -0.0931164 8.0139e-08
-0.169706 0.0931164 0.0299238
-0.351525 -0.137005 4.58406e-08
-0.169706 -0.137005 -0.0299236
-0.351525 -0.0931164 4.58406e-08
-0.346185 -0.0931164 0.0610417
-0.346185 -0.0931164 -0.0610416
-0.346185 -0.137005 -0.0610416
-0.169706 -0.0931164 -0.0299236
-0.161931 -0.137005 -0.0589381
-0.330326 -0.137005 -0.120229
-0.330326 -0.0931164 -0.120229
-0.161931 -0.0931164 -0.0589381
-0.149237 -0.137005 -0.0861617
-0.172324 0.0931164 8.0139e-08
-0.169706 0.0931164 -0.0299236
-0.149237 -0.0931164 -0.0861617
-0.161931 0.0931164 -0.0589381
-0.30443 -0.137005 -0.175762
-0.132008 -0.137005 -0.110767
-0.149237 0.0931164 -0.0861617
-0.132008 -0.0931164 -0.110767
-0.161931 0.137005 -0.0589381
-0.169706 0.137005 -0.0299236
-0.149237 0.137005 -0.0861617
-0.132008 0.0931164 -0.110767
-0.110768 -0.0931164 -0.132007
-0.110768 -0.137005 -0.132007
-0.110768 0.0931164 -0.132007
-0.132008 0.137005 -0.110767
-0.330326 0.137005 -0.120229
-0.30443 0.137005 -0.175762
-0.110768 0.137005 -0.132007
-0.269284 0.137005 -0.225956
-0.0861618 -0.0931164 -0.149237
-0.0861618 0.0931164 -0.149237
-0.225956 0.137005 -0.269284
-0.0861618 0.137005 -0.149237
-0.30443 0.0931164 -0.175762
-0.269284 0.0931164 -0.225956
-0.225956 0.0931164 -0.269284
-0.175763 0.137005 -0.30443
-0.0589382 0.0931164 -0.161931
-0.0589382 0.137005 -0.161931
-0.175763 0.0931164 -0.30443
-0.120229 0.137005 -0.330325
-0.0299237 0.137005 -0.169706
-0.0299237 0.0931164 -0.169706
-0.0589382 -0.0931164 -0.161931
-0.0299237 -0.0931164 -0.169706
-2.15108e-08 0.0931164 -0.172324
-2.15108e-08 -0.0931164 -0.172324
-2.15108e-08 -0.137005 -0.172324
-0.0299237 -0.137005 -0.169706
0.0299238 -0.0931164 -0.169706
0.0299238 -0.137005 -0.169706
-2.15108e-08 0.137005 -0.172324
0.0299238 0.0931164 -0.169706
0.0589382 -0.0931164 -0.161931
0.0589382 -0.137005 -0.161931
0.0610419 -0.137005 -0.346185
-2.39586e-08 -0.137005 -0.351525
0.0861619 -0.137005 -0.149236
0.120229 -0.137005 -0.330325
0.0589382 0.0931164 -0.161931
0.0861619 -0.0931164 -0.149237
0.175763 -0.137005 -0.304429
0.110768 -0.137005 -0.132007
0.175763 -0.0931164 -0.30443
0.120229 -0.0931164 -0.330325
0.225956 -0.0931164 -0.269284
0.225956 -0.137005 -0.269284
0.110768 -0.0931164 -0.132007
0.132008 -0.137005 -0.110767
0.269284 -0.137005 -0.225956
0.269284 -0.0931164 -0.225956
0.132008 -0.0931164 -0.110767
0.149237 -0.137005 -0.0861616
0.0861619 0.0931164 -0.149237
0.110768 0.0931164 -0.132007
0.149237 -0.0931164 -0.0861616
0.132008 0.0931164 -0.110767
0.161931 -0.137005 -0.058938
0.30443 -0.137005 -0.175762
0.161931 -0.0931164 -0.058938
0.149237 0.0931164 -0.0861616
0.132008 0.137005 -0.110767
0.110768 0.137005 -0.132007
0.149237 0.137005 -0.0861616
0.161931 0.0931164 -0.058938
0.169706 -0.0931164 -0.0299235
0.169706 -0.137005 -0.0299235
0.169706 0.0931164 -0.0299235
0.161931 0.137005 -0.058938
0.30443 0.137005 -0.175762
0.269284 0.137005 -0.225956
0.169706 0.137005 -0.0299235
0.330326 0.137005 -0.120228
0.172324 -0.0931164 1.73264e-07
0.172324 0.0931164 1.73264e-07
0.346185 0.137005 -0.0610414
0.172324 0.137005 1.73264e-07
0.30443 0.0931164 -0.175762
0.330326 0.0931164 -0.120228
0.346185 0.0931164 -0.0610415
0.351525 0.137005 2.35808e-07
0.169706 0.0931164 0.0299238
0.169706 0.137005 0.0299238
0.351525 0.0931164 2.35808e-07
0.346185 0.137005 0.0610419
0.161931 0.137005 0.0589383
0.161931 0.0931164 0.0589383
0.169706 -0.0931164 0.0299238
0.161931 -0.0931164 0.0589383
0.149237 0.0931164 0.086162
0.149237 -0.0931164 0.086162
0.149237 -0.137005 0.0861619
0.161931 -0.137005 0.0589383
0.132008 -0.0931164 0.110768
0.132007 -0.137005 0.110768
0.149237 0.137005 0.0861619
0.132008 0.0931164 0.110768
0.110767 -0.0931164 0.132008
0.110767 -0.137005 0.132008
0.269284 -0.137005 0.225956
0.30443 -0.137005 0.175763
0.0861617 -0.137005 0.149237
0.225956 -0.137005 0.269284
0.110767 0.0931164 0.132008
0.0861617 -0.0931164 0.149237
0.0589381 -0.137005 0.161931
0.175762 -0.137005 0.30443
0.225956 -0.0931164 0.269284
0.175762 -0.0931164 0.30443
0.120228 -0.137005 0.330326
0.120228 -0.0931164 0.330326
0.0589381 -0.0931164 0.161931
0.0299236 -0.137005 0.169706
0.0610415 -0.0931164 0.346185
0.0610415 -0.137005 0.346185
0.0299236 -0.0931164 0.169706
-8.86161e-08 -0.137005 0.172324
0.0861617 0.0931164 0.149237
0.0589381 0.0931164 0.161931
-8.86161e-08 -0.0931164 0.172324
0.0299236 0.0931164 0.169706
-0.0299238 -0.137005 0.169706
-1.60848e-07 -0.137005 0.351525
-0.0299238 -0.0931164 0.169706
-8.86161e-08 0.0931164 0.172324
0.0589381 0.137005 0.161931
0.0299236 0.137005 0.169706
-0.0299238 0.0931164 0.169706
-8.86161e-08 0.137005 0.172324
-0.0589382 -0.137005 0.161931
-1.60848e-07 0.137005 0.351525
0.0610415 0.137005 0.346185
0.0610415 0.0931164 0.346185
-1.60848e-07 0.0931164 0.351525
0.120228 0.0931164 0.330326
0.120228 0.137005 0.330326
0.161458 2.05426e-08 0.443603
0.0610415 2.05426e-08 0.346185
-1.60848e-07 2.05426e-08 0.351525
0.25893 2.05426e-08 0.711406
0.192811 -0.0931164 0.529744
1.10672 -0.0931164 0.638967
0.192811 0.0931164 0.529744
1.48625 2.05426e-08 0.858085
0.175762 0.0931164 0.30443
1.10672 0.0931164 0.638967
0.745561 2.05426e-08 -0.131462
0.555177 -0.0931164 -0.0978923
0.555177 0.0931164 -0.0978923
0.4649 2.05426e-08 -0.0819741
0.346185 -0.0931164 -0.0610415
0.351525 -0.0931164 2.35808e-07
0.346185 -0.137005 -0.0610414
0.330326 -0.0931164 -0.120228
0.330326 -0.137005 -0.120228
0.351525 -0.137005 2.35808e-07
0.346185 -0.0931164 0.0610419
0.172324 -0.137005 1.73264e-07
0.169706 -0.137005 0.0299238
0.346185 -0.137005 0.0610419
0.330325 -0.0931164 0.120229
0.330325 -0.137005 0.120229
0.30443 -0.0931164 0.175763
0.269284 -0.0931164 0.225956
0.30443 -0.0931164 -0.175762
0.330326 2.05426e-08 -0.120228
0.30443 2.05426e-08 -0.175762
0.346185 0.0931164 0.0610419
0.330325 0.0931164 0.120229
0.330325 0.137005 0.120229
0.30443 0.137005 0.175763
0.30443 0.0931164 0.175763
0.269284 0.137005 0.225956
0.132007 0.137005 0.110768
0.110767 0.137005 0.132008
0.269284 0.0931164 0.225956
0.225956 0.137005 0.269284
0.225956 0.0931164 0.269284
0.0861617 0.137005 0.149237
0.175762 0.137005 0.30443
0.269284 2.05426e-08 -0.225956
0.269284 0.0931164 -0.225956
0.303442 2.05426e-08 -0.361628
0.225956 0.0931164 -0.269284
0.486631 2.05426e-08 -0.579943
0.362366 -0.0931164 -0.431851
0.0610419 -0.0931164 -0.346185
-2.39586e-08 -0.0931164 -0.351525
-0.0610417 -0.0931164 -0.346185
-0.0610417 -0.137005 -0.346185
-0.120229 -0.137005 -0.330325
-0.120229 -0.0931164 -0.330325
-0.362366 -0.0931164 -0.431851
-0.0589382 -0.137005 -0.161931
-0.175763 -0.137005 -0.30443
-0.0861618 -0.137005 -0.149237
-0.225956 -0.137005 -0.269284
-0.175763 -0.0931164 -0.30443
-0.225956 -0.0931164 -0.269284
-0.269284 -0.137005 -0.225956
-0.269284 -0.0931164 -0.225956
-0.30443 -0.0931164 -0.175762
-0.269284 2.05426e-08 -0.225956
-0.303442 2.05426e-08 -0.361628
-0.30443 2.05426e-08 -0.175762
-0.48663 2.05426e-08 -0.579943
-0.362366 0.0931164 -0.431851
-0.120229 0.0931164 -0.330325
-0.0610417 0.0931164 -0.346185
-0.0610417 0.137005 -0.346185
-2.39586e-08 0.137005 -0.351525
0.362366 0.0931164 -0.431851
-2.39586e-08 0.0931164 -0.351525
0.0299238 0.137005 -0.169706
0.0610419 0.137005 -0.346185
0.0589382 0.137005 -0.161931
0.0610419 0.0931164 -0.346185
0.120229 0.137005 -0.330325
0.120229 0.0931164 -0.330325
0.175763 0.137005 -0.304429
0.0861619 0.137005 -0.149236
0.175763 0.0931164 -0.30443
0.225956 0.137005 -0.269284
5.12596e-07 0.0931164 -1.27793
6.97633e-07 2.05426e-08 -1.71617
5.12596e-07 -0.0931164 -1.27793
-0.330326 2.05426e-08 -0.120229
-0.330326 0.0931164 -0.120229
-0.4649 2.05426e-08 -0.0819744
-0.346185 0.0931164 -0.0610416
-0.745561 2.05426e-08 -0.131463
-0.555177 -0.0931164 -0.0978927
-1.48625 2.05426e-08 0.858084
-0.555177 0.0931164 -0.0978927
-0.258931 2.05426e-08 0.711406
-0.192811 -0.0931164 0.529744
-0.351525 0.0931164 4.58406e-08
-0.346185 0.0931164 0.0610417
-0.330326 0.0931164 0.120229
-0.30443 0.0931164 0.175763
-0.192811 0.0931164 0.529744
-0.351525 0.137005 4.58406e-08
-0.346185 0.137005 0.0610417
-0.330326 0.137005 0.120229
-0.169706 0.137005 0.0299238
-0.172324 0.137005 8.0139e-08
-0.346185 0.137005 -0.0610416
-0.161458 2.05426e-08 0.443602
-0.0610418 2.05426e-08 0.346185
-0.120229 -0.0931164 0.330326
-0.0610418 -0.0931164 0.346185
-0.0610418 -0.137005 0.346185
-1.60848e-07 -0.0931164 0.351525
3 0 1 2
3 0 2 3
3 4 0 5
3 4 1 0
3 5 0 3
3 4 6 1
3 1 6 7
3 1 7 2
3 8 3 2
3 8 2 9
3 9 2 7
3 6 10 7
3 11 7 10
3 9 7 11
3 6 12 10
3 4 12 6
3 11 10 13
3 13 10 14
3 12 14 10
3 15 9 11
3 16 15 11
3 16 11 13
3 15 17 9
3 17 8 9
3 15 16 18
3 15 18 19
3 17 15 19
3 16 20 21
3 16 21 18
3 20 16 13
3 18 21 22
3 18 22 23
3 19 18 23
3 24 19 25
3 17 19 24
3 19 23 25
3 25 23 26
3 23 22 27
3 23 27 26
3 21 28 22
3 22 28 29
3 22 29 27
3 30 31 27
3 30 27 29
3 31 26 27
3 32 33 26
3 25 26 33
3 31 32 26
3 32 34 33
3 34 32 35
3 32 31 35
3 36 25 33
3 36 33 37
3 34 37 33
3 38 34 35
3 34 38 37
3 38 39 37
3 40 36 37
3 40 37 39
3 24 25 36
3 41 24 36
3 41 36 40
3 42 41 40
3 42 40 43
3 43 40 39
3 44 45 41
3 44 41 42
3 45 24 41
3 45 17 24
3 45 44 46
3 45 46 8
3 17 45 8
3 47 44 42
3 44 47 48
3 44 48 46
3 46 49 3
3 46 3 8
3 48 49 46
3 47 50 48
3 50 51 48
3 48 51 49
3 47 52 50
3 47 42 53
3 52 47 53
3 50 54 51
3 55 54 50
3 52 55 50
3 56 57 51
3 56 51 54
3 57 49 51
3 58 56 54
3 58 54 59
3 55 59 54
3 60 61 55
3 61 59 55
3 52 60 55
3 61 62 59
3 63 58 59
3 63 59 62
3 60 64 61
3 65 62 61
3 64 65 61
3 60 52 66
3 60 66 67
3 64 60 67
3 68 64 69
3 64 67 69
3 64 68 65
3 65 70 62
3 71 70 65
3 68 71 65
3 68 69 72
3 73 68 72
3 68 73 71
3 72 69 74
3 69 67 75
3 69 75 74
3 72 74 76
3 73 72 77
3 77 72 76
3 78 73 77
3 73 78 79
3 73 79 71
3 78 77 80
3 80 77 81
3 77 76 81
3 76 74 82
3 76 82 83
3 81 76 83
3 84 81 85
3 81 83 85
3 80 81 84
3 86 78 80
3 86 80 87
3 87 80 84
3 84 85 88
3 89 84 88
3 87 84 89
3 90 91 85
3 90 85 83
3 91 88 85
3 92 93 88
3 91 92 88
3 89 88 93
3 94 87 89
3 94 89 95
3 95 89 93
3 92 96 93
3 95 93 97
3 96 97 93
3 98 95 97
3 99 94 95
3 99 95 98
3 100 87 94
3 101 100 94
3 101 94 99
3 102 99 98
3 103 101 99
3 103 99 102
3 101 103 104
3 101 104 105
3 100 101 105
3 103 106 107
3 103 107 104
3 106 103 102
3 102 98 108
3 109 102 108
3 106 102 109
3 110 106 109
3 106 110 111
3 106 111 107
3 111 112 107
3 107 112 113
3 107 113 104
3 114 115 111
3 111 115 112
3 110 114 111
3 110 109 116
3 117 110 116
3 110 117 114
3 114 118 115
3 119 118 114
3 117 119 114
3 120 121 115
3 120 115 118
3 121 112 115
3 122 120 118
3 122 118 123
3 119 123 118
3 124 125 119
3 125 123 119
3 117 124 119
3 125 126 123
3 127 122 123
3 127 123 126
3 128 129 125
3 124 128 125
3 129 126 125
3 124 117 130
3 124 130 131
3 128 124 131
3 128 132 129
3 128 131 133
3 132 128 133
3 134 135 129
3 129 135 126
3 132 134 129
3 136 132 137
3 132 133 137
3 132 136 134
3 137 133 138
3 133 131 139
3 133 139 138
3 137 138 140
3 136 137 141
3 141 137 140
3 142 136 141
3 136 142 143
3 136 143 134
3 142 141 144
3 144 141 145
3 141 140 145
3 145 140 146
3 140 138 147
3 140 147 146
3 148 145 149
3 145 146 149
3 144 145 148
3 150 142 144
3 150 144 151
3 151 144 148
3 148 149 152
3 153 148 152
3 151 148 153
3 154 155 149
3 154 149 146
3 155 152 149
3 156 157 152
3 155 156 152
3 153 152 157
3 158 151 153
3 158 153 159
3 159 153 157
3 156 160 157
3 159 157 161
3 160 161 157
3 162 159 161
3 163 158 159
3 163 159 162
3 164 151 158
3 165 164 158
3 165 158 163
3 166 163 162
3 167 165 163
3 167 163 166
3 165 167 168
3 165 168 169
3 164 165 169
3 170 167 166
3 167 170 171
3 167 171 168
3 166 162 172
3 170 166 173
3 173 166 172
3 170 174 175
3 170 175 171
3 174 170 173
3 171 176 177
3 171 177 168
3 175 176 171
3 178 179 175
3 175 179 176
3 174 178 175
3 174 173 180
3 181 174 180
3 174 181 178
3 181 182 178
3 178 183 179
3 182 183 178
3 184 176 179
3 185 184 179
3 185 179 183
3 182 186 183
3 187 185 183
3 187 183 186
3 181 188 182
3 189 186 182
3 188 189 182
3 190 187 186
3 190 186 191
3 189 191 186
3 192 193 189
3 193 191 189
3 188 192 189
3 188 181 194
3 188 194 195
3 192 188 195
3 192 196 193
3 192 195 197
3 196 192 197
3 196 198 193
3 198 199 193
3 193 199 191
3 196 200 198
3 200 196 201
3 196 197 201
3 197 195 202
3 197 202 203
3 201 197 203
3 204 201 205
3 200 201 204
3 201 203 205
3 200 20 206
3 200 206 198
3 20 200 204
3 204 205 28
3 21 204 28
3 20 204 21
3 28 205 207
3 205 203 208
3 205 208 207
3 28 207 29
3 209 210 207
3 209 207 208
3 210 29 207
3 211 209 208
3 211 208 212
3 203 212 208
3 213 214 209
3 213 209 211
3 214 210 209
3 214 215 210
3 215 30 210
3 210 30 29
3 187 190 214
3 187 214 213
3 190 215 214
3 216 213 211
3 217 187 213
3 217 213 216
3 185 187 218
3 187 217 218
3 218 217 216
3 216 211 219
3 220 216 219
3 218 216 220
3 221 222 211
3 222 219 211
3 221 211 212
3 220 219 222
3 223 220 222
3 224 218 220
3 224 220 223
3 223 222 225
3 226 223 225
3 227 224 223
3 227 223 226
3 218 224 227
3 228 227 229
3 218 227 228
3 227 230 231
3 227 231 229
3 230 227 226
3 228 229 232
3 218 228 233
3 233 228 232
3 143 229 231
3 234 232 229
3 234 229 143
3 230 135 231
3 143 231 134
3 134 231 135
3 142 234 143
3 150 235 234
3 142 150 234
3 235 232 234
3 150 164 235
3 164 150 151
3 235 236 232
3 169 236 235
3 164 169 235
3 237 233 236
3 237 236 238
3 169 238 236
3 233 232 236
3 168 238 169
3 168 177 238
3 239 237 238
3 239 238 177
3 218 233 237
3 218 237 239
3 240 239 177
3 218 239 240
3 240 177 176
3 218 240 184
3 184 240 176
3 185 218 184
3 230 241 135
3 241 126 135
3 241 230 242
3 230 226 242
3 127 241 243
3 241 242 243
3 241 127 126
3 243 242 155
3 242 226 156
3 242 156 155
3 226 225 156
3 156 225 222
3 160 156 222
3 244 160 222
3 160 244 161
3 244 245 246
3 244 246 161
3 245 244 222
3 162 161 246
3 172 162 246
3 172 246 247
3 245 247 246
3 248 245 222
3 245 248 247
3 248 249 247
3 250 172 247
3 250 247 249
3 173 172 250
3 180 173 250
3 180 250 251
3 251 250 249
3 248 252 249
3 251 249 253
3 252 253 249
3 252 248 222
3 254 252 222
3 252 254 253
3 255 251 253
3 255 253 256
3 254 256 253
3 194 180 251
3 194 251 255
3 181 180 194
3 195 194 255
3 195 255 202
3 202 255 256
3 202 256 212
3 221 212 256
3 254 221 256
3 221 254 222
3 203 202 212
3 243 155 154
3 257 243 154
3 127 243 257
3 257 154 258
3 258 154 146
3 259 257 258
3 122 127 257
3 122 257 259
3 259 258 260
3 260 258 147
3 258 146 147
3 261 259 260
3 262 122 259
3 262 259 261
3 120 122 262
3 121 120 262
3 263 121 262
3 121 263 112
3 264 263 262
3 263 264 113
3 263 113 112
3 265 264 262
3 264 265 266
3 264 266 113
3 104 113 266
3 265 267 266
3 104 266 105
3 105 266 267
3 268 265 269
3 265 262 269
3 265 268 267
3 270 267 271
3 105 267 270
3 268 271 267
3 100 105 270
3 86 100 270
3 86 270 272
3 270 271 272
3 272 271 273
3 274 273 271
3 268 274 271
3 268 269 274
3 269 275 274
3 274 275 273
3 275 276 273
3 79 273 276
3 272 273 79
3 78 86 272
3 78 272 79
3 100 86 87
3 79 276 71
3 277 70 276
3 275 277 276
3 71 276 70
3 277 278 70
3 278 277 279
3 277 275 280
3 277 280 279
3 278 62 70
3 63 278 281
3 278 279 281
3 278 63 62
3 281 279 91
3 279 280 92
3 279 92 91
3 280 282 283
3 280 283 92
3 275 282 280
3 96 92 283
3 284 96 283
3 96 284 97
3 284 285 286
3 284 286 97
3 284 283 285
3 98 97 286
3 108 98 286
3 108 286 287
3 285 287 286
3 283 288 285
3 288 289 285
3 285 289 287
3 290 108 287
3 290 287 291
3 289 291 287
3 109 108 290
3 292 290 291
3 116 109 290
3 116 290 292
3 293 294 291
3 292 291 294
3 289 293 291
3 288 293 289
3 293 295 294
3 288 295 293
3 295 296 294
3 297 292 294
3 297 294 296
3 130 116 292
3 130 292 297
3 117 116 130
3 131 130 297
3 139 297 296
3 131 297 139
3 295 298 296
3 298 299 296
3 139 296 299
3 288 298 295
3 298 260 299
3 288 260 298
3 138 139 299
3 138 299 147
3 260 147 299
3 261 260 288
3 283 300 288
3 301 261 288
3 301 288 300
3 302 262 261
3 302 261 301
3 282 301 300
3 269 302 301
3 269 301 282
3 282 300 283
3 275 269 282
3 262 302 269
3 281 91 90
3 303 281 90
3 63 281 303
3 303 90 304
3 304 90 83
3 305 303 304
3 58 63 303
3 58 303 305
3 305 304 306
3 306 304 82
3 304 83 82
3 307 305 306
3 308 58 305
3 308 305 307
3 58 308 4
3 56 58 4
3 4 308 307
3 309 307 310
3 307 306 310
3 4 307 309
3 311 309 35
3 309 310 35
3 312 4 309
3 312 309 311
3 35 310 306
3 313 35 306
3 313 314 35
3 314 315 35
3 315 316 35
3 316 38 35
3 31 317 35
3 311 35 317
3 314 313 318
3 314 318 319
3 315 314 319
3 315 319 320
3 316 315 320
3 38 316 39
3 316 320 39
3 43 39 320
3 321 43 320
3 321 320 319
3 322 321 319
3 322 319 318
3 53 43 321
3 66 53 321
3 66 321 322
3 53 42 43
3 52 53 66
3 67 66 322
3 75 322 318
3 67 322 75
3 74 75 323
3 75 318 323
3 313 323 318
3 313 306 323
3 74 323 82
3 306 82 323
3 324 311 317
3 324 317 31
3 325 324 31
3 326 311 324
3 327 326 324
3 327 324 325
3 326 312 311
3 4 312 326
3 4 326 12
3 326 327 328
3 326 328 14
3 12 326 14
3 329 327 325
3 327 329 199
3 327 199 328
3 206 14 328
3 206 328 198
3 198 328 199
3 13 14 206
3 20 13 206
3 329 191 199
3 329 190 191
3 190 329 215
3 329 325 215
3 215 325 30
3 325 31 30
3 56 4 57
3 4 5 57
3 57 5 49
3 5 3 49
